# xmcd
#
# Track frame offsets: 
#        150
#        20129
#        46670
#        73113
#        92593
#        115492
#        138089
#
# Disc length: 2415 seconds
#
# Revision: 0
# Processed by: cddbd v1.5.2PL0 Copyright (c) Steve Scherf et al.
# Submitted via: ExactAudioCopy v1.3
#
DISCID=5a096d07
DTITLE=Bushwick Blooze Band - Cryin' for the L Train
DYEAR=2019
DGENRE=Blues Rock
TTITLE0=Lucille
TTITLE1=Cleanhead Blues
TTITLE2=Red House
TTITLE3=Southbound
TTITLE4=Going Down
TTITLE5=Skeletons In Her Closet
TTITLE6=Fade Into Blue
EXTD=
EXTT0=
EXTT1=
EXTT2=
EXTT3=
EXTT4=
EXTT5=
EXTT6=
PLAYORDER=
